<svg xmlns="http://www.w3.org/2000/svg" width="32" height="24" viewBox="0 0 32 24"><g transform="translate(-18 -139)"><path d="M24.286,40.571A3.571,3.571,0,1,0,20.714,37,3.57,3.57,0,0,0,24.286,40.571Zm0-5.714A2.143,2.143,0,1,1,22.143,37,2.143,2.143,0,0,1,24.286,34.857ZM14.286,42a5,5,0,1,0-5-5A5,5,0,0,0,14.286,42Zm0-8.571A3.571,3.571,0,1,1,10.714,37,3.576,3.576,0,0,1,14.286,33.429ZM25.179,42H23.393a3.23,3.23,0,0,0-1.835.576,6.051,6.051,0,0,1,1.134,1,1.776,1.776,0,0,1,.7-.147h1.786a2.063,2.063,0,0,1,1.964,2.143.714.714,0,1,0,1.429,0A3.49,3.49,0,0,0,25.179,42ZM4.286,40.571A3.571,3.571,0,1,0,.714,37,3.57,3.57,0,0,0,4.286,40.571Zm0-5.714A2.143,2.143,0,1,1,2.143,37,2.143,2.143,0,0,1,4.286,34.857Zm13.576,8.036c-1.491,0-1.862.536-3.576.536s-2.085-.536-3.576-.536a4.92,4.92,0,0,0-4.121,2.094,5.116,5.116,0,0,0-.875,2.871v2A2.143,2.143,0,0,0,7.857,52H20.714a2.143,2.143,0,0,0,2.143-2.143v-2a5.116,5.116,0,0,0-.875-2.871,4.92,4.92,0,0,0-4.121-2.094Zm3.567,6.964a.716.716,0,0,1-.714.714H7.857a.716.716,0,0,1-.714-.714v-2a3.709,3.709,0,0,1,.629-2.071,3.494,3.494,0,0,1,2.933-1.464c1.223,0,1.661.536,3.58.536s2.357-.536,3.576-.536a3.494,3.494,0,0,1,2.933,1.464,3.709,3.709,0,0,1,.629,2.071v2ZM7.013,42.576A3.251,3.251,0,0,0,5.179,42H3.393A3.49,3.49,0,0,0,0,45.571a.714.714,0,1,0,1.429,0,2.063,2.063,0,0,1,1.964-2.143H5.179a1.776,1.776,0,0,1,.7.147,6.194,6.194,0,0,1,1.134-1Z" transform="translate(20 109)" fill="#555"/><rect width="32" height="24" transform="translate(18 139)" fill="none"/></g></svg>