<svg xmlns="http://www.w3.org/2000/svg" width="56" height="40" viewBox="0 0 56 40"><g transform="translate(0 -120)"><rect width="56" height="40" transform="translate(0 120)" fill="none"/><path d="M36.429,44.857A5.357,5.357,0,1,0,31.071,39.5,5.356,5.356,0,0,0,36.429,44.857Zm0-8.571A3.214,3.214,0,1,1,33.214,39.5,3.215,3.215,0,0,1,36.429,36.286ZM21.429,47a7.5,7.5,0,1,0-7.5-7.5A7.5,7.5,0,0,0,21.429,47Zm0-12.857A5.357,5.357,0,1,1,16.071,39.5,5.364,5.364,0,0,1,21.429,34.143ZM37.768,47H35.089a4.845,4.845,0,0,0-2.752.864,9.076,9.076,0,0,1,1.7,1.5,2.664,2.664,0,0,1,1.051-.221h2.679a3.094,3.094,0,0,1,2.946,3.214,1.071,1.071,0,1,0,2.143,0A5.235,5.235,0,0,0,37.768,47ZM6.429,44.857A5.357,5.357,0,1,0,1.071,39.5,5.356,5.356,0,0,0,6.429,44.857Zm0-8.571A3.214,3.214,0,1,1,3.214,39.5,3.215,3.215,0,0,1,6.429,36.286ZM26.792,48.339c-2.237,0-2.792.8-5.364.8s-3.127-.8-5.364-.8A7.38,7.38,0,0,0,9.884,51.48a7.674,7.674,0,0,0-1.312,4.306v3A3.215,3.215,0,0,0,11.786,62H31.071a3.215,3.215,0,0,0,3.214-3.214v-3a7.674,7.674,0,0,0-1.312-4.306,7.38,7.38,0,0,0-6.181-3.141Zm5.35,10.446a1.075,1.075,0,0,1-1.071,1.071H11.786a1.075,1.075,0,0,1-1.071-1.071v-3a5.563,5.563,0,0,1,.944-3.107,5.241,5.241,0,0,1,4.4-2.2c1.835,0,2.491.8,5.371.8s3.536-.8,5.364-.8a5.241,5.241,0,0,1,4.4,2.2,5.563,5.563,0,0,1,.944,3.107v3ZM10.52,47.864A4.877,4.877,0,0,0,7.768,47H5.089A5.235,5.235,0,0,0,0,52.357a1.071,1.071,0,1,0,2.143,0,3.094,3.094,0,0,1,2.946-3.214H7.768a2.664,2.664,0,0,1,1.051.221,9.292,9.292,0,0,1,1.7-1.5Z" transform="translate(6.6 93)" fill="#292929"/></g></svg>