<svg xmlns="http://www.w3.org/2000/svg" width="32" height="24" viewBox="0 0 32 24"><g transform="translate(-18 -179)"><g transform="translate(-5177 -188)"><path d="M20,49.857V34.143A2.143,2.143,0,0,0,17.857,32H2.143A2.143,2.143,0,0,0,0,34.143V49.857A2.143,2.143,0,0,0,2.143,52H17.857A2.143,2.143,0,0,0,20,49.857Zm-17.857.714a.715.715,0,0,1-.714-.714V34.143a.715.715,0,0,1,.714-.714H17.857a.715.715,0,0,1,.714.714V49.857a.715.715,0,0,1-.714.714Zm9.286-12.5v-.714A.357.357,0,0,0,11.071,37H4.643a.357.357,0,0,0-.357.357v.714a.357.357,0,0,0,.357.357h6.429A.357.357,0,0,0,11.429,38.071Zm4.286,4.286v-.714a.357.357,0,0,0-.357-.357H4.643a.357.357,0,0,0-.357.357v.714a.357.357,0,0,0,.357.357H15.357A.357.357,0,0,0,15.714,42.357ZM8.571,46.643v-.714a.357.357,0,0,0-.357-.357H4.643a.357.357,0,0,0-.357.357v.714A.357.357,0,0,0,4.643,47H8.214A.357.357,0,0,0,8.571,46.643Z" transform="translate(5201 337)" fill="#555"/><path d="M5.143,38.3v.724a.745.745,0,0,0,.765.724h6.12a.745.745,0,0,0,.765-.724V38.3a.745.745,0,0,0-.765-.724H5.908A.745.745,0,0,0,5.143,38.3Zm0,4.343v.724a.745.745,0,0,0,.765.724h10.71a.745.745,0,0,0,.765-.724v-.724a.745.745,0,0,0-.765-.724H5.908A.745.745,0,0,0,5.143,42.638Zm0,4.343V47.7a.745.745,0,0,0,.765.724h3.06a.745.745,0,0,0,.765-.724v-.724a.745.745,0,0,0-.765-.724H5.908A.745.745,0,0,0,5.143,46.981Z" transform="translate(5199.957 336)" fill="#555"/></g><rect width="32" height="24" transform="translate(18 179)" fill="none"/></g></svg>