<svg xmlns="http://www.w3.org/2000/svg" width="32" height="24" viewBox="0 0 32 24"><g transform="translate(-18 -97)"><g transform="translate(8.686 -2)"><path d="M33.272,47.3H24.587a.568.568,0,0,0-.62.488v.976a.568.568,0,0,0,.62.488h8.685a.568.568,0,0,0,.62-.488v-.976A.568.568,0,0,0,33.272,47.3Zm0-3.9H24.587a.568.568,0,0,0-.62.488v.976a.568.568,0,0,0,.62.488h8.685a.568.568,0,0,0,.62-.488v-.976A.568.568,0,0,0,33.272,43.4Zm0-3.9H24.587a.568.568,0,0,0-.62.488v.976a.568.568,0,0,0,.62.488h8.685a.568.568,0,0,0,.62-.488v-.976A.568.568,0,0,0,33.272,39.5Z" transform="translate(5 62)" fill="#555"/><path d="M14.286,42a5,5,0,1,0-5-5A5,5,0,0,0,14.286,42Zm0-8.571A3.571,3.571,0,1,1,10.714,37,3.576,3.576,0,0,1,14.286,33.429Zm3.576,9.464c-1.491,0-1.862.536-3.576.536s-2.085-.536-3.576-.536a4.92,4.92,0,0,0-4.121,2.094,5.116,5.116,0,0,0-.875,2.871v2A2.143,2.143,0,0,0,7.857,52H20.714a2.143,2.143,0,0,0,2.143-2.143v-2a5.116,5.116,0,0,0-.875-2.871,4.92,4.92,0,0,0-4.121-2.094Zm3.567,6.964a.716.716,0,0,1-.714.714H7.857a.716.716,0,0,1-.714-.714v-2a3.709,3.709,0,0,1,.629-2.071,3.494,3.494,0,0,1,2.933-1.464c1.223,0,1.661.536,3.58.536s2.357-.536,3.576-.536a3.494,3.494,0,0,1,2.933,1.464,3.709,3.709,0,0,1,.629,2.071v2Z" transform="translate(6 69)" fill="#555"/></g><rect width="32" height="24" transform="translate(18 97)" fill="none"/></g></svg>