<svg xmlns="http://www.w3.org/2000/svg" width="32" height="24" viewBox="0 0 32 24"><g transform="translate(-18 -221)"><g transform="translate(24.019 222.999)"><path d="M.084,290.434l2.3,2.3a.288.288,0,0,0,.491-.2v-1.727H11.97a.287.287,0,0,0,.287-.287v-.575a.287.287,0,0,0-.287-.287H2.877v-1.727a.287.287,0,0,0-.491-.2l-2.3,2.3A.288.288,0,0,0,.084,290.434Z" transform="translate(0.446 -280.754)" fill="#555" stroke="#555" stroke-width="0.2"/><path d="M33.368,2.387l-2.3-2.3a.287.287,0,0,0-.49.2V2.016H17.037a.287.287,0,0,0-.287.287v.575a.287.287,0,0,0,.287.287H30.575V4.892a.287.287,0,0,0,.49.2l2.3-2.3A.287.287,0,0,0,33.368,2.387Z" transform="translate(-20.251 0)" fill="#555" stroke="#555" stroke-width="0.2"/><path d="M361.372,714.3l-2.3-2.3a.287.287,0,0,0-.49.2v1.727H340.6a.287.287,0,0,0-.287.287v.575a.287.287,0,0,0,.287.287h17.982V716.8a.287.287,0,0,0,.49.2l2.3-2.3A.287.287,0,0,0,361.372,714.3Z" transform="translate(-337.152 -697.089)" fill="#555" stroke="#555" stroke-width="0.2"/><path d="M546.471,81.252l2.3-2.3a.288.288,0,0,0-.2-.491h-1.728v-5.5a.287.287,0,0,0-.287-.287h-.575a.287.287,0,0,0-.287.287v5.5h-1.727a.288.288,0,0,0-.2.491l2.3,2.3A.288.288,0,0,0,546.471,81.252Z" transform="translate(-530.216 -70.929)" fill="#555" stroke="#555" stroke-width="0.2"/><path d="M94.761,523.333l2.3-2.3a.288.288,0,0,0-.2-.491H95.132v-6.613a.287.287,0,0,0-.287-.287h-.575a.287.287,0,0,0-.287.287v6.613H92.256a.287.287,0,0,0-.2.49l2.3,2.3A.287.287,0,0,0,94.761,523.333Z" transform="translate(-95.987 -504.652)" fill="#555" stroke="#555" stroke-width="0.2"/></g><rect width="32" height="24" transform="translate(18 221)" fill="none"/></g></svg>