<svg xmlns="http://www.w3.org/2000/svg" width="56" height="40" viewBox="0 0 56 40"><g transform="translate(0 -56)"><rect width="56" height="40" transform="translate(0 56)" fill="none"/><g transform="translate(4965.6 6830)"><path d="M37.924,51.208H24.9a.852.852,0,0,0-.931.732V53.4a.852.852,0,0,0,.931.732H37.924a.852.852,0,0,0,.931-.732V51.94A.852.852,0,0,0,37.924,51.208Zm0-5.856H24.9a.852.852,0,0,0-.931.732v1.464a.852.852,0,0,0,.931.732H37.924a.852.852,0,0,0,.931-.732V46.084A.852.852,0,0,0,37.924,45.352Zm0-5.856H24.9a.852.852,0,0,0-.931.732v1.464a.852.852,0,0,0,.931.732H37.924a.852.852,0,0,0,.931-.732V40.228A.852.852,0,0,0,37.924,39.5Z" transform="translate(-4956.088 -6807.752)" fill="#292929"/><path d="M18.571,47a7.5,7.5,0,1,0-7.5-7.5A7.5,7.5,0,0,0,18.571,47Zm0-12.857A5.357,5.357,0,1,1,13.214,39.5,5.364,5.364,0,0,1,18.571,34.143Zm5.364,14.2c-2.237,0-2.792.8-5.364.8s-3.127-.8-5.364-.8A7.38,7.38,0,0,0,7.027,51.48a7.674,7.674,0,0,0-1.312,4.306v3A3.215,3.215,0,0,0,8.929,62H28.214a3.215,3.215,0,0,0,3.214-3.214v-3a7.674,7.674,0,0,0-1.312-4.306,7.38,7.38,0,0,0-6.181-3.141Zm5.35,10.446a1.075,1.075,0,0,1-1.071,1.071H8.929a1.075,1.075,0,0,1-1.071-1.071v-3A5.563,5.563,0,0,1,8.8,52.679a5.241,5.241,0,0,1,4.4-2.2c1.835,0,2.491.8,5.371.8s3.536-.8,5.364-.8a5.241,5.241,0,0,1,4.4,2.2,5.563,5.563,0,0,1,.944,3.107v3Z" transform="translate(-4963.714 -6801)" fill="#292929"/></g></g></svg>