<svg xmlns="http://www.w3.org/2000/svg" width="32" height="24" viewBox="0 0 32 24"><g transform="translate(-18 -59)"><g transform="translate(-5140.6 -190.2)"><path d="M13.459,9.187a5.342,5.342,0,0,0,.041-.638,4.037,4.037,0,0,0-.049-.638l1.383-1.08a.338.338,0,0,0,.082-.417l-1.31-2.267A.333.333,0,0,0,13.2,4l-1.629.655a4.8,4.8,0,0,0-1.105-.638l-.246-1.735A.327.327,0,0,0,9.9,2H7.279a.319.319,0,0,0-.319.278L6.714,4.014a4.924,4.924,0,0,0-1.105.638L3.98,4a.324.324,0,0,0-.4.147L2.27,6.412a.317.317,0,0,0,.082.417L3.735,7.91a3.857,3.857,0,0,0-.008,1.277l-1.383,1.08a.338.338,0,0,0-.082.417l1.31,2.267a.333.333,0,0,0,.4.147L5.6,12.444a4.8,4.8,0,0,0,1.105.638l.246,1.735a.333.333,0,0,0,.327.278H9.9a.313.313,0,0,0,.319-.278l.246-1.735a4.924,4.924,0,0,0,1.105-.638L13.2,13.1a.324.324,0,0,0,.4-.147l1.31-2.267a.317.317,0,0,0-.082-.417l-1.367-1.08ZM8.589,11a2.456,2.456,0,1,1,2.456-2.456A2.463,2.463,0,0,1,8.589,11Z" transform="translate(5158.278 249.2)" fill="none" stroke="#555" stroke-width="1"/><path d="M13.459,9.187a5.342,5.342,0,0,0,.041-.638,4.037,4.037,0,0,0-.049-.638l1.383-1.08a.338.338,0,0,0,.082-.417l-1.31-2.267A.333.333,0,0,0,13.2,4l-1.629.655a4.8,4.8,0,0,0-1.105-.638l-.246-1.735A.327.327,0,0,0,9.9,2H7.279a.319.319,0,0,0-.319.278L6.714,4.014a4.924,4.924,0,0,0-1.105.638L3.98,4a.324.324,0,0,0-.4.147L2.27,6.412a.317.317,0,0,0,.082.417L3.735,7.91a3.857,3.857,0,0,0-.008,1.277l-1.383,1.08a.338.338,0,0,0-.082.417l1.31,2.267a.333.333,0,0,0,.4.147L5.6,12.444a4.8,4.8,0,0,0,1.105.638l.246,1.735a.333.333,0,0,0,.327.278H9.9a.313.313,0,0,0,.319-.278l.246-1.735a4.924,4.924,0,0,0,1.105-.638L13.2,13.1a.324.324,0,0,0,.4-.147l1.31-2.267a.317.317,0,0,0-.082-.417l-1.367-1.08ZM8.589,11a2.456,2.456,0,1,1,2.456-2.456A2.463,2.463,0,0,1,8.589,11Z" transform="translate(5173.811 249.2)" fill="none" stroke="#555" stroke-width="1"/><path d="M9.951,6.943A3.674,3.674,0,0,0,9.979,6.5a2.777,2.777,0,0,0-.034-.439l.951-.743a.233.233,0,0,0,.056-.287l-.9-1.559a.229.229,0,0,0-.276-.1l-1.12.45a3.3,3.3,0,0,0-.76-.439L7.727,2.191A.225.225,0,0,0,7.5,2H5.7a.219.219,0,0,0-.22.191L5.312,3.385a3.387,3.387,0,0,0-.76.439l-1.12-.45a.223.223,0,0,0-.276.1l-.9,1.559a.218.218,0,0,0,.056.287l.951.743a2.653,2.653,0,0,0-.006.878l-.951.743a.233.233,0,0,0-.056.287l.9,1.559a.229.229,0,0,0,.276.1l1.12-.45a3.3,3.3,0,0,0,.76.439l.169,1.194a.229.229,0,0,0,.225.191H7.5a.215.215,0,0,0,.22-.191L7.89,9.623a3.387,3.387,0,0,0,.76-.439l1.12.45a.223.223,0,0,0,.276-.1l.9-1.559a.218.218,0,0,0-.056-.287l-.94-.743ZM6.6,8.193A1.689,1.689,0,1,1,8.29,6.5,1.694,1.694,0,0,1,6.6,8.193Z" transform="translate(5167.771 260.192)" fill="none" stroke="#555" stroke-width="1"/></g><rect width="32" height="24" transform="translate(18 59)" fill="none"/></g></svg>