<svg xmlns="http://www.w3.org/2000/svg" width="56" height="40" viewBox="0 0 56 40"><rect width="56" height="40" fill="none"/><g transform="translate(5194 6774)"><path d="M19.077,12.78a8.014,8.014,0,0,0,.061-.958,6.055,6.055,0,0,0-.074-.958L21.14,9.244a.507.507,0,0,0,.123-.626L19.3,5.217A.5.5,0,0,0,18.7,5l-2.443.982A7.193,7.193,0,0,0,14.6,5.02l-.368-2.6A.49.49,0,0,0,13.736,2H9.807a.478.478,0,0,0-.479.417L8.96,5.02A7.386,7.386,0,0,0,7.3,5.978L4.859,5a.486.486,0,0,0-.6.221l-1.964,3.4a.476.476,0,0,0,.123.626l2.075,1.621a5.786,5.786,0,0,0-.012,1.915L2.4,14.4a.507.507,0,0,0-.123.626l1.964,3.4a.5.5,0,0,0,.6.221l2.443-.982a7.193,7.193,0,0,0,1.658.958l.368,2.6a.5.5,0,0,0,.491.417h3.929a.469.469,0,0,0,.479-.417l.368-2.6a7.386,7.386,0,0,0,1.658-.958l2.443.982a.486.486,0,0,0,.6-.221l1.964-3.4a.476.476,0,0,0-.123-.626l-2.05-1.621Zm-7.305,2.726a3.683,3.683,0,1,1,3.683-3.683A3.694,3.694,0,0,1,11.772,15.506Z" transform="translate(-5189.222 -6771)" fill="none" stroke="#292929" stroke-width="1"/><path d="M19.077,12.78a8.014,8.014,0,0,0,.061-.958,6.055,6.055,0,0,0-.074-.958L21.14,9.244a.507.507,0,0,0,.123-.626L19.3,5.217A.5.5,0,0,0,18.7,5l-2.443.982A7.193,7.193,0,0,0,14.6,5.02l-.368-2.6A.49.49,0,0,0,13.736,2H9.807a.478.478,0,0,0-.479.417L8.96,5.02A7.386,7.386,0,0,0,7.3,5.978L4.859,5a.486.486,0,0,0-.6.221l-1.964,3.4a.476.476,0,0,0,.123.626l2.075,1.621a5.786,5.786,0,0,0-.012,1.915L2.4,14.4a.507.507,0,0,0-.123.626l1.964,3.4a.5.5,0,0,0,.6.221l2.443-.982a7.193,7.193,0,0,0,1.658.958l.368,2.6a.5.5,0,0,0,.491.417h3.929a.469.469,0,0,0,.479-.417l.368-2.6a7.386,7.386,0,0,0,1.658-.958l2.443.982a.486.486,0,0,0,.6-.221l1.964-3.4a.476.476,0,0,0-.123-.626l-2.05-1.621Zm-7.305,2.726a3.683,3.683,0,1,1,3.683-3.683A3.694,3.694,0,0,1,11.772,15.506Z" transform="translate(-5165.922 -6771)" fill="none" stroke="#292929" stroke-width="1"/><path d="M13.815,9.414a5.512,5.512,0,0,0,.042-.659,4.165,4.165,0,0,0-.051-.659l1.427-1.115a.349.349,0,0,0,.084-.431L13.967,4.213a.343.343,0,0,0-.414-.152l-1.681.676a4.948,4.948,0,0,0-1.14-.659l-.253-1.79A.337.337,0,0,0,10.142,2h-2.7a.329.329,0,0,0-.329.287l-.253,1.79a5.08,5.08,0,0,0-1.14.659L4.036,4.061a.334.334,0,0,0-.414.152L2.271,6.552a.327.327,0,0,0,.084.431L3.783,8.1a3.98,3.98,0,0,0-.008,1.317L2.347,10.529a.349.349,0,0,0-.084.431L3.614,13.3a.343.343,0,0,0,.414.152l1.681-.676a4.948,4.948,0,0,0,1.14.659l.253,1.79a.344.344,0,0,0,.338.287h2.7a.323.323,0,0,0,.329-.287l.253-1.79a5.08,5.08,0,0,0,1.14-.659l1.681.676a.334.334,0,0,0,.414-.152L15.31,10.96a.327.327,0,0,0-.084-.431l-1.41-1.115ZM8.79,11.289a2.533,2.533,0,1,1,2.533-2.533A2.541,2.541,0,0,1,8.79,11.289Z" transform="translate(-5174.983 -6754.512)" fill="none" stroke="#292929" stroke-width="1"/></g></svg>