<svg xmlns="http://www.w3.org/2000/svg" width="56" height="40" viewBox="0 0 56 40"><g transform="translate(0 -184)"><rect width="56" height="40" transform="translate(0 184)" fill="none"/><g transform="translate(4510 6958)"><path d="M30,58.786V35.214A3.215,3.215,0,0,0,26.786,32H3.214A3.215,3.215,0,0,0,0,35.214V58.786A3.215,3.215,0,0,0,3.214,62H26.786A3.215,3.215,0,0,0,30,58.786ZM3.214,59.857a1.073,1.073,0,0,1-1.071-1.071V35.214a1.073,1.073,0,0,1,1.071-1.071H26.786a1.073,1.073,0,0,1,1.071,1.071V58.786a1.073,1.073,0,0,1-1.071,1.071Zm13.929-18.75V40.036a.536.536,0,0,0-.536-.536H6.964a.536.536,0,0,0-.536.536v1.071a.536.536,0,0,0,.536.536h9.643A.536.536,0,0,0,17.143,41.107Zm6.429,6.429V46.464a.536.536,0,0,0-.536-.536H6.964a.536.536,0,0,0-.536.536v1.071a.536.536,0,0,0,.536.536H23.036A.536.536,0,0,0,23.571,47.536ZM12.857,53.964V52.893a.536.536,0,0,0-.536-.536H6.964a.536.536,0,0,0-.536.536v1.071a.536.536,0,0,0,.536.536h5.357A.536.536,0,0,0,12.857,53.964Z" transform="translate(-4497 -6801)" fill="#292929"/><path d="M5.143,38.657v1.086A1.118,1.118,0,0,0,6.29,40.829h9.18a1.118,1.118,0,0,0,1.148-1.086V38.657a1.118,1.118,0,0,0-1.148-1.086H6.29A1.118,1.118,0,0,0,5.143,38.657Zm0,6.514v1.086A1.118,1.118,0,0,0,6.29,47.343H22.356A1.118,1.118,0,0,0,23.5,46.257V45.171a1.118,1.118,0,0,0-1.148-1.086H6.29A1.118,1.118,0,0,0,5.143,45.171Zm0,6.514v1.086A1.118,1.118,0,0,0,6.29,53.857h4.59a1.118,1.118,0,0,0,1.148-1.086V51.686A1.118,1.118,0,0,0,10.881,50.6H6.29A1.118,1.118,0,0,0,5.143,51.686Z" transform="translate(-4495.994 -6799.714)" fill="#292929"/></g></g></svg>