<svg xmlns="http://www.w3.org/2000/svg" width="56" height="40" viewBox="0 0 56 40"><g transform="translate(0 -248)"><rect width="56" height="40" transform="translate(0 248)" fill="none"/><g transform="translate(5193.75 6850)"><path d="M.126,291.83l3.453,3.453a.431.431,0,0,0,.736-.3v-2.591h13.64a.431.431,0,0,0,.431-.431v-.862a.431.431,0,0,0-.431-.431H4.315v-2.591a.431.431,0,0,0-.736-.3L.126,291.221A.431.431,0,0,0,.126,291.83Z" transform="translate(-5180.302 -6874.313)" fill="#292929" stroke="#292929" stroke-width="0.2"/><path d="M41.676,3.58,38.223.128a.431.431,0,0,0-.735.3V3.023H17.181a.431.431,0,0,0-.431.431v.862a.431.431,0,0,0,.431.431H37.487V7.338a.431.431,0,0,0,.735.3L41.676,4.19A.43.43,0,0,0,41.676,3.58Z" transform="translate(-5202.974 -6597.001)" fill="#292929" stroke="#292929" stroke-width="0.2"/><path d="M371.9,715.491l-3.453-3.453a.431.431,0,0,0-.735.3v2.591H340.741a.431.431,0,0,0-.431.431v.862a.431.431,0,0,0,.431.431h26.973v2.591a.431.431,0,0,0,.735.3L371.9,716.1A.43.43,0,0,0,371.9,715.491Z" transform="translate(-5516.546 -7286.68)" fill="#292929" stroke="#292929" stroke-width="0.2"/><path d="M547.868,85.543l3.453-3.453a.431.431,0,0,0-.3-.736h-2.591V73.1a.431.431,0,0,0-.431-.431h-.862a.431.431,0,0,0-.431.431v8.253H544.11a.431.431,0,0,0-.3.736l3.453,3.453A.431.431,0,0,0,547.868,85.543Z" transform="translate(-5704.458 -6667.061)" fill="#292929" stroke="#292929" stroke-width="0.2"/><path d="M96.157,528.18l3.453-3.453a.431.431,0,0,0-.3-.736H96.715v-9.919a.431.431,0,0,0-.431-.431h-.862a.431.431,0,0,0-.431.431v9.92H92.4a.431.431,0,0,0-.3.735l3.453,3.453A.43.43,0,0,0,96.157,528.18Z" transform="translate(-5278.968 -7097.16)" fill="#292929" stroke="#292929" stroke-width="0.2"/></g></g></svg>