<svg xmlns="http://www.w3.org/2000/svg" width="32" height="24" viewBox="0 0 32 24"><path d="M22.7,40.7,19.941,38.48V35.09a.268.268,0,0,0-.268-.268h-.892a.268.268,0,0,0-.268.268v2.235l-6.241-5.032a1.424,1.424,0,0,0-1.793,0L.054,40.7a.264.264,0,0,0-.04.375l.562.7a.269.269,0,0,0,.379.04l1.856-1.494V50.53a1.426,1.426,0,0,0,1.428,1.428H9.413a.537.537,0,0,0,.535-.535V45.529l2.855.013v5.9a.537.537,0,0,0,.535.535l5.175-.013a1.426,1.426,0,0,0,1.428-1.428V40.318L21.8,41.813a.269.269,0,0,0,.379-.04l.562-.7a.274.274,0,0,0-.04-.379Zm-4.184,9.837-4.283.013v-5.9a.537.537,0,0,0-.535-.535L9.056,44.1a.537.537,0,0,0-.535.535v5.9H4.239V39.163l6.968-5.621a.262.262,0,0,1,.335,0l6.968,5.621V50.534Z" transform="translate(4.546 -29.975)" fill="#555" stroke="#555" stroke-width="0.3"/><rect width="32" height="24" fill="none"/></svg>